<svg id="svg" version="1.1" xmlns="http://www.w3.org/2000/svg" xmlns:xlink="http://www.w3.org/1999/xlink" width="400" height="182.75555555555553" viewBox="0, 0, 400,182.75555555555553"><g id="svgg"><path id="path0" d="M253.500 72.910 L 253.500 143.500 268.500 143.500 L 283.500 143.500 283.500 115.572 L 283.500 87.644 296.792 87.713 C 310.791 87.785,310.500 87.770,314.158 88.610 C 319.060 89.735,322.949 92.330,325.382 96.098 C 326.048 97.129,327.106 99.341,327.249 100.000 C 327.279 100.138,327.378 100.443,327.470 100.678 C 327.635 101.106,328.230 103.732,328.411 104.833 C 328.464 105.154,328.576 105.792,328.662 106.250 C 329.093 108.569,329.719 115.475,329.916 120.083 C 330.331 129.796,330.385 130.518,330.934 133.750 C 331.171 135.142,331.316 135.704,331.944 137.651 C 332.264 138.644,333.298 140.546,334.374 142.119 L 335.261 143.417 350.464 143.459 C 360.776 143.488,365.667 143.447,365.667 143.331 C 365.667 143.237,365.033 142.237,364.259 141.110 C 362.670 138.797,362.063 137.581,361.417 135.417 C 361.171 134.592,360.826 133.434,360.651 132.845 C 360.302 131.673,359.751 128.069,359.578 125.833 C 359.518 125.054,359.445 124.117,359.417 123.750 C 359.388 123.383,359.248 119.821,359.105 115.833 C 358.300 93.331,357.378 89.334,351.170 81.427 C 348.254 77.713,344.453 75.521,339.417 74.650 C 338.775 74.539,338.325 74.428,338.417 74.404 C 354.502 70.172,363.855 55.910,362.507 37.667 C 362.281 34.596,361.269 29.254,360.661 27.917 C 360.578 27.733,360.350 27.096,360.155 26.500 C 359.122 23.346,356.492 18.806,353.833 15.588 C 352.789 14.324,349.821 11.498,348.591 10.598 C 348.226 10.331,347.850 10.045,347.755 9.963 C 347.385 9.642,345.294 8.333,345.151 8.333 C 345.068 8.333,345.000 8.258,345.000 8.167 C 345.000 8.075,344.930 8.000,344.845 8.000 C 344.760 8.000,344.250 7.738,343.712 7.417 C 342.780 6.862,338.482 5.000,338.133 5.000 C 338.042 5.000,337.731 4.891,337.442 4.758 C 336.439 4.296,331.958 3.307,329.500 3.004 C 325.080 2.461,323.865 2.443,288.792 2.382 L 253.500 2.321 253.500 72.910 M370.000 72.917 L 370.000 143.500 384.916 143.500 L 399.833 143.500 399.875 72.917 L 399.917 2.333 384.958 2.333 L 370.000 2.333 370.000 72.917 M315.333 28.002 C 324.691 28.567,330.169 31.673,332.338 37.643 C 334.135 42.589,333.689 50.231,331.386 53.967 C 329.185 57.538,326.869 59.428,322.917 60.882 C 318.652 62.450,318.360 62.470,299.625 62.491 L 283.500 62.509 283.500 45.171 L 283.500 27.833 298.042 27.835 C 306.040 27.836,313.821 27.911,315.333 28.002 " stroke="none" fill="#94949b" fill-rule="evenodd"></path><path id="path1" d="M232.083 162.277 C 226.144 163.547,223.261 171.526,226.413 177.974 C 229.958 185.227,241.614 183.835,242.599 176.042 L 242.710 175.167 241.452 175.167 L 240.194 175.167 240.014 176.006 C 239.073 180.395,233.537 181.962,230.151 178.799 C 227.059 175.910,227.123 168.434,230.264 165.677 C 233.306 163.006,238.634 164.059,239.696 167.542 L 239.886 168.167 241.128 168.167 L 242.370 168.167 242.255 167.552 C 241.507 163.564,236.998 161.226,232.083 162.277 M161.878 162.333 C 156.325 163.500,155.627 170.936,160.915 172.589 C 161.374 172.732,162.893 173.099,164.291 173.404 C 168.799 174.387,170.111 175.561,169.333 177.919 C 167.918 182.204,159.667 181.039,159.667 176.554 L 159.667 176.000 158.333 176.000 L 157.000 176.000 157.000 176.755 C 157.000 179.187,158.833 181.599,161.294 182.407 C 162.854 182.919,167.284 182.730,168.583 182.095 C 173.210 179.837,173.288 173.452,168.708 171.930 C 167.899 171.662,167.033 171.453,163.781 170.745 C 160.509 170.033,159.439 168.920,160.004 166.818 C 161.006 163.089,168.417 163.586,168.943 167.418 L 169.045 168.167 170.364 168.167 L 171.682 168.167 171.574 167.542 C 171.154 165.116,169.880 163.381,167.965 162.625 C 166.976 162.235,163.206 162.054,161.878 162.333 M302.671 162.434 C 299.844 163.193,298.372 165.258,298.535 168.235 C 298.694 171.153,300.129 172.325,304.667 173.246 C 309.619 174.251,310.886 175.132,310.580 177.361 C 309.961 181.858,301.646 181.583,300.801 177.037 L 300.608 176.000 299.304 176.000 C 297.796 176.000,297.819 175.960,298.252 177.800 C 298.816 180.189,300.474 181.944,302.696 182.504 C 304.294 182.906,308.606 182.656,309.709 182.098 C 313.537 180.158,314.390 175.393,311.362 172.858 C 310.276 171.948,309.943 171.837,305.250 170.820 C 301.960 170.107,301.151 169.541,301.042 167.877 C 300.753 163.495,308.681 162.828,309.945 167.128 L 310.250 168.166 311.469 168.166 L 312.687 168.167 312.572 167.375 C 311.968 163.228,307.679 161.088,302.671 162.434 M30.333 172.333 L 30.333 182.333 31.583 182.333 L 32.833 182.333 32.833 177.667 L 32.833 173.000 37.833 173.000 L 42.833 173.000 42.833 177.667 L 42.833 182.333 44.167 182.333 L 45.500 182.333 45.500 172.333 L 45.500 162.333 44.167 162.333 L 42.833 162.333 42.833 166.500 L 42.833 170.667 37.833 170.667 L 32.833 170.667 32.833 166.500 L 32.833 162.333 31.583 162.333 L 30.333 162.333 30.333 172.333 M48.333 172.333 L 48.333 182.333 55.167 182.333 L 62.000 182.333 62.000 181.250 L 62.000 180.167 56.417 180.167 L 50.833 180.167 50.833 176.667 L 50.833 173.167 55.833 173.167 L 60.833 173.167 60.833 172.000 L 60.833 170.833 55.833 170.833 L 50.833 170.833 50.833 167.750 L 50.833 164.667 56.333 164.667 L 61.833 164.667 61.833 163.500 L 61.833 162.333 55.083 162.333 L 48.333 162.333 48.333 172.333 M70.353 162.702 C 70.274 162.912,69.935 163.833,69.599 164.750 C 69.263 165.667,68.909 166.604,68.811 166.833 C 68.713 167.063,68.377 167.962,68.065 168.833 C 67.753 169.704,67.424 170.567,67.336 170.750 C 67.247 170.933,66.900 171.833,66.564 172.750 C 66.229 173.667,65.674 175.167,65.331 176.083 C 64.989 177.000,64.434 178.500,64.099 179.417 C 63.765 180.333,63.380 181.320,63.245 181.609 C 63.110 181.897,63.000 182.182,63.000 182.240 C 63.000 182.298,63.656 182.325,64.457 182.298 L 65.915 182.250 66.262 181.250 C 66.454 180.700,66.893 179.444,67.240 178.458 L 67.870 176.667 71.921 176.667 L 75.973 176.667 76.259 177.542 C 76.416 178.023,76.591 178.492,76.647 178.583 C 76.704 178.675,77.012 179.537,77.333 180.500 L 77.917 182.250 79.395 182.298 C 80.761 182.343,80.865 182.324,80.750 182.048 C 80.682 181.884,80.369 181.037,80.056 180.167 C 79.743 179.296,79.385 178.358,79.262 178.083 C 79.139 177.808,78.871 177.096,78.667 176.500 C 78.462 175.904,78.194 175.192,78.071 174.917 C 77.948 174.642,77.581 173.685,77.257 172.792 C 76.932 171.898,76.401 170.435,76.076 169.542 C 75.752 168.648,75.385 167.692,75.262 167.417 C 75.139 167.142,74.871 166.429,74.667 165.833 C 74.462 165.237,74.193 164.525,74.068 164.250 C 73.942 163.975,73.737 163.450,73.612 163.083 L 73.384 162.417 71.940 162.368 C 70.568 162.323,70.490 162.339,70.353 162.702 M82.333 172.417 L 82.333 182.500 83.583 182.500 L 84.833 182.500 84.833 178.071 L 84.833 173.643 88.388 173.696 L 91.944 173.750 92.555 174.217 C 93.645 175.049,93.958 176.059,94.166 179.417 C 94.358 182.518,94.347 182.500,95.996 182.500 C 96.731 182.500,97.333 182.472,97.333 182.438 C 97.333 182.404,97.188 182.046,97.010 181.644 C 96.778 181.120,96.612 180.067,96.425 177.936 C 96.103 174.251,95.339 172.513,94.036 172.496 C 93.879 172.494,94.070 172.347,94.462 172.170 C 97.939 170.591,97.871 164.746,94.353 162.927 C 93.476 162.473,91.779 162.336,87.042 162.335 L 82.333 162.333 82.333 172.417 M98.167 163.500 L 98.167 164.667 101.500 164.667 L 104.833 164.667 104.833 173.500 L 104.833 182.333 106.000 182.333 L 107.167 182.333 107.167 173.500 L 107.167 164.667 110.500 164.667 L 113.833 164.667 113.833 163.500 L 113.833 162.333 106.000 162.333 L 98.167 162.333 98.167 163.500 M124.167 172.403 L 124.167 182.500 125.417 182.500 L 126.667 182.500 126.667 178.071 L 126.667 173.643 130.138 173.696 C 135.213 173.775,135.552 174.080,135.918 178.899 C 136.196 182.568,136.160 182.500,137.820 182.500 L 139.148 182.500 138.841 181.792 C 138.629 181.303,138.473 180.282,138.339 178.500 C 138.040 174.546,137.188 172.518,135.818 172.496 C 135.689 172.494,135.888 172.354,136.259 172.186 C 139.086 170.902,139.681 166.174,137.310 163.848 C 135.904 162.468,135.796 162.448,129.542 162.371 L 124.167 162.305 124.167 172.403 M141.833 172.333 L 141.833 182.333 148.667 182.333 L 155.500 182.333 155.500 181.250 L 155.500 180.167 149.917 180.167 L 144.333 180.167 144.333 176.667 L 144.333 173.167 149.333 173.167 L 154.333 173.167 154.333 172.000 L 154.333 170.833 149.333 170.833 L 144.333 170.833 144.333 167.750 L 144.333 164.667 149.833 164.667 L 155.333 164.667 155.333 163.500 L 155.333 162.333 148.583 162.333 L 141.833 162.333 141.833 172.333 M174.500 172.333 L 174.500 182.333 181.333 182.333 L 188.167 182.333 188.167 181.250 L 188.167 180.167 182.583 180.167 L 177.000 180.167 177.000 176.667 L 177.000 173.167 182.000 173.167 L 187.000 173.167 187.000 172.000 L 187.000 170.833 182.000 170.833 L 177.000 170.833 177.000 167.750 L 177.000 164.667 182.500 164.667 L 188.000 164.667 188.000 163.500 L 188.000 162.333 181.250 162.333 L 174.500 162.333 174.500 172.333 M195.966 164.036 C 195.147 166.332,192.857 172.458,192.584 173.083 C 192.463 173.358,192.138 174.221,191.860 175.000 C 191.582 175.779,190.863 177.715,190.261 179.302 C 189.659 180.889,189.167 182.221,189.167 182.261 C 189.167 182.301,189.798 182.333,190.570 182.333 L 191.974 182.333 192.173 181.708 C 192.283 181.365,192.473 180.858,192.596 180.583 C 192.719 180.308,193.074 179.333,193.385 178.417 L 193.951 176.750 198.036 176.705 L 202.121 176.661 202.923 178.955 C 203.365 180.217,203.806 181.494,203.904 181.792 L 204.082 182.333 205.457 182.333 C 206.447 182.333,206.833 182.275,206.833 182.125 C 206.833 181.914,206.288 180.362,205.999 179.750 C 205.912 179.567,205.569 178.667,205.237 177.750 C 204.905 176.833,204.382 175.408,204.075 174.583 C 203.768 173.758,203.212 172.258,202.839 171.250 C 202.465 170.242,202.088 169.267,202.001 169.083 C 201.850 168.768,201.316 167.329,200.084 163.917 L 199.542 162.417 198.060 162.369 L 196.577 162.322 195.966 164.036 M208.500 172.401 L 208.500 182.500 209.750 182.500 L 211.000 182.500 211.000 178.071 L 211.000 173.643 214.568 173.696 L 218.137 173.750 218.777 174.265 C 219.894 175.164,220.039 175.665,220.319 179.583 C 220.523 182.430,220.567 182.500,222.193 182.500 C 222.912 182.500,223.500 182.474,223.500 182.442 C 223.500 182.411,223.373 182.130,223.218 181.820 C 223.032 181.447,222.865 180.402,222.726 178.752 C 222.357 174.355,222.088 173.555,220.697 172.710 L 220.145 172.374 220.676 172.189 C 223.107 171.341,224.083 166.221,222.191 164.239 C 220.501 162.469,220.392 162.445,213.958 162.368 L 208.500 162.303 208.500 172.401 M245.333 172.333 L 245.333 182.333 246.667 182.333 L 248.000 182.333 248.000 177.667 L 248.000 173.000 253.000 173.000 L 258.000 173.000 258.000 177.667 L 258.000 182.333 259.250 182.333 L 260.500 182.333 260.500 172.333 L 260.500 162.333 259.250 162.333 L 258.000 162.333 258.000 166.500 L 258.000 170.667 252.917 170.667 L 247.833 170.667 247.833 166.500 L 247.833 162.333 246.583 162.333 L 245.333 162.333 245.333 172.333 M274.333 172.333 L 274.333 182.333 275.583 182.333 L 276.833 182.333 276.833 172.333 L 276.833 162.333 275.583 162.333 L 274.333 162.333 274.333 172.333 M279.833 172.333 L 279.833 182.333 281.093 182.333 L 282.353 182.333 282.302 174.106 C 282.261 167.681,282.293 165.982,282.446 166.347 C 282.554 166.604,282.995 167.362,283.427 168.032 C 283.858 168.702,284.450 169.625,284.741 170.083 C 285.424 171.158,287.491 174.371,289.138 176.917 C 289.850 178.017,290.612 179.217,290.832 179.583 C 291.052 179.950,291.279 180.287,291.336 180.333 C 291.392 180.379,291.683 180.848,291.982 181.375 L 292.524 182.333 294.012 182.333 L 295.500 182.333 295.500 172.333 L 295.500 162.333 294.243 162.333 L 292.985 162.333 293.034 170.625 L 293.083 178.917 292.602 178.000 C 292.338 177.496,291.806 176.596,291.421 176.000 C 291.036 175.404,290.361 174.354,289.922 173.667 C 288.098 170.815,286.648 168.562,286.235 167.935 C 286.060 167.670,285.842 167.334,285.750 167.189 C 284.823 165.719,283.669 163.921,283.194 163.208 L 282.611 162.333 281.222 162.333 L 279.833 162.333 279.833 172.333 M313.000 163.500 L 313.000 164.667 316.333 164.667 L 319.667 164.667 319.667 173.500 L 319.667 182.333 321.000 182.333 L 322.333 182.333 322.333 173.500 L 322.333 164.667 325.583 164.667 L 328.833 164.667 328.833 163.500 L 328.833 162.333 320.917 162.333 L 313.000 162.333 313.000 163.500 M330.500 172.333 L 330.500 182.333 331.750 182.333 L 333.000 182.333 333.000 172.333 L 333.000 162.333 331.750 162.333 L 330.500 162.333 330.500 172.333 M334.500 163.500 L 334.500 164.667 337.833 164.667 L 341.167 164.667 341.167 173.500 L 341.167 182.333 342.417 182.333 L 343.667 182.333 343.667 173.500 L 343.667 164.667 347.000 164.667 L 350.333 164.667 350.333 163.500 L 350.333 162.333 342.417 162.333 L 334.500 162.333 334.500 163.500 M351.873 169.958 C 351.937 178.501,351.936 178.496,353.146 180.177 C 355.592 183.578,363.411 183.647,365.958 180.291 C 367.307 178.512,367.498 177.085,367.499 168.792 L 367.500 162.333 366.167 162.333 L 364.833 162.333 364.833 169.544 C 364.833 177.970,364.785 178.260,363.167 179.617 C 361.481 181.029,357.174 180.796,355.625 179.209 C 354.432 177.987,354.429 177.961,354.370 169.708 L 354.317 162.333 353.066 162.333 L 351.815 162.333 351.873 169.958 M368.833 163.500 L 368.833 164.667 372.167 164.667 L 375.500 164.667 375.500 173.500 L 375.500 182.333 376.833 182.333 L 378.167 182.333 378.167 173.504 L 378.167 164.674 381.458 164.629 L 384.750 164.583 384.799 163.458 L 384.849 162.333 376.841 162.333 L 368.833 162.333 368.833 163.500 M386.167 172.333 L 386.167 182.333 393.083 182.333 L 400.000 182.333 400.000 181.250 L 400.000 180.167 394.333 180.167 L 388.667 180.167 388.667 176.667 L 388.667 173.167 393.750 173.167 L 398.833 173.167 398.833 172.000 L 398.833 170.833 393.750 170.833 L 388.667 170.833 388.667 167.750 L 388.667 164.667 394.250 164.667 L 399.833 164.667 399.833 163.500 L 399.833 162.333 393.000 162.333 L 386.167 162.333 386.167 172.333 M92.004 164.667 C 94.612 165.162,95.511 168.067,93.672 170.057 C 92.637 171.176,91.951 171.333,88.103 171.333 L 84.833 171.333 84.833 167.917 L 84.833 164.500 87.977 164.500 C 89.706 164.500,91.519 164.575,92.004 164.667 M133.824 164.665 C 136.904 165.249,137.362 169.313,134.514 170.792 L 133.471 171.333 130.069 171.333 L 126.667 171.333 126.667 167.917 L 126.667 164.500 129.811 164.500 C 131.540 164.500,133.346 164.574,133.824 164.665 M219.114 164.960 C 221.521 166.233,221.183 169.774,218.543 170.942 C 217.707 171.311,217.464 171.333,214.245 171.333 L 210.833 171.333 210.833 167.901 L 210.833 164.468 214.625 164.530 C 218.152 164.587,218.465 164.617,219.114 164.960 M198.580 166.600 C 199.980 170.617,200.514 172.106,200.667 172.417 C 200.881 172.851,201.333 174.167,201.333 174.354 C 201.333 174.434,199.837 174.500,198.009 174.500 L 194.685 174.500 194.943 173.625 C 195.085 173.144,195.254 172.675,195.319 172.583 C 195.384 172.492,195.995 170.720,196.677 168.647 C 197.359 166.574,197.937 164.894,197.961 164.913 C 197.985 164.933,198.264 165.692,198.580 166.600 M73.340 169.167 C 73.610 169.946,73.907 170.733,74.000 170.917 C 74.200 171.313,75.167 174.170,75.167 174.365 C 75.167 174.439,73.664 174.500,71.827 174.500 C 68.702 174.500,68.498 174.481,68.636 174.208 C 68.718 174.048,69.326 172.304,69.988 170.333 C 70.649 168.362,71.259 166.600,71.342 166.417 C 71.425 166.233,71.577 165.858,71.679 165.583 C 71.884 165.032,71.970 165.218,73.340 169.167 " stroke="none" fill="#040404" fill-rule="evenodd"></path><path id="path2" d="M66.417 0.102 C 56.364 1.080,48.525 3.245,40.250 7.329 C 36.265 9.295,31.286 12.328,29.052 14.150 C 28.760 14.388,28.131 14.883,27.654 15.250 C 24.333 17.802,19.560 22.361,17.250 25.190 C 15.777 26.993,13.167 30.376,13.167 30.482 C 13.167 30.549,13.034 30.749,12.872 30.927 C 12.711 31.105,12.319 31.662,12.003 32.167 C 11.686 32.671,11.383 33.121,11.328 33.167 C 11.238 33.242,10.128 35.114,8.906 37.250 C 4.511 44.932,1.436 54.852,0.304 65.000 C -0.122 68.816,0.092 78.677,0.667 81.750 C 0.753 82.208,0.982 83.558,1.176 84.750 C 3.853 101.217,13.501 117.335,27.250 128.309 C 28.075 128.968,28.839 129.579,28.948 129.667 C 29.808 130.363,32.857 132.413,34.583 133.455 C 36.217 134.441,40.580 136.833,40.745 136.833 C 40.791 136.833,41.298 137.064,41.872 137.346 C 43.190 137.993,46.983 139.548,48.083 139.893 C 48.542 140.036,49.367 140.309,49.917 140.499 C 52.526 141.401,56.551 142.355,61.250 143.184 C 66.003 144.023,74.721 144.160,80.583 143.489 C 85.994 142.869,94.789 140.643,98.583 138.933 C 98.858 138.809,99.603 138.503,100.238 138.253 C 100.873 138.003,101.511 137.735,101.655 137.658 C 101.799 137.581,102.927 137.019,104.162 136.411 C 106.314 135.351,108.085 134.385,109.333 133.589 C 113.201 131.126,113.544 130.888,116.313 128.750 C 120.559 125.471,125.456 120.661,128.190 117.083 C 128.400 116.808,128.612 116.546,128.661 116.500 C 128.788 116.381,130.707 113.832,131.045 113.333 C 132.159 111.689,133.530 109.598,133.748 109.212 C 133.892 108.958,134.145 108.525,134.310 108.250 C 134.766 107.492,137.167 103.014,137.167 102.922 C 137.167 102.877,137.423 102.293,137.737 101.623 C 138.448 100.105,139.861 96.553,140.239 95.333 C 140.396 94.829,140.590 94.267,140.671 94.083 C 141.454 92.305,142.964 85.504,143.593 80.917 C 144.355 75.362,144.228 65.867,143.330 61.250 C 143.241 60.792,142.982 59.387,142.756 58.128 C 141.930 53.537,139.478 45.714,137.932 42.739 C 137.793 42.470,137.148 41.162,136.500 39.833 C 135.447 37.673,134.574 36.040,133.833 34.847 C 133.267 33.934,130.218 29.392,129.965 29.083 C 129.814 28.900,129.223 28.150,128.651 27.417 C 123.748 21.130,116.121 14.340,109.591 10.450 C 102.490 6.220,96.393 3.727,88.277 1.736 C 87.071 1.440,83.005 0.720,80.667 0.388 C 79.002 0.152,68.144 -0.066,66.417 0.102 M136.667 14.157 L 136.667 25.980 137.645 27.448 C 139.916 30.859,141.252 33.172,143.212 37.083 C 144.157 38.970,145.538 42.096,145.753 42.833 C 145.820 43.063,145.932 43.325,146.002 43.417 C 146.073 43.508,146.374 44.333,146.672 45.250 C 146.970 46.167,147.270 46.992,147.340 47.083 C 147.466 47.250,148.433 50.555,148.997 52.750 C 149.950 56.458,150.649 60.515,150.993 64.333 C 151.096 65.479,151.253 67.104,151.340 67.945 C 152.680 80.776,148.428 99.307,141.251 111.917 C 139.962 114.181,139.173 115.477,138.002 117.250 L 136.681 119.250 136.674 131.375 L 136.667 143.500 151.667 143.500 L 166.667 143.500 166.667 112.583 L 166.667 81.667 190.667 81.667 L 214.667 81.667 214.667 112.583 L 214.667 143.500 229.583 143.500 L 244.500 143.500 244.500 72.917 L 244.500 2.333 229.583 2.333 L 214.667 2.333 214.667 29.250 L 214.667 56.167 190.667 56.167 L 166.667 56.167 166.667 29.250 L 166.667 2.333 151.667 2.333 L 136.667 2.333 136.667 14.157 M76.250 19.330 C 91.380 20.889,105.250 28.323,113.418 39.250 C 113.692 39.617,114.017 40.022,114.140 40.152 C 114.262 40.281,114.555 40.693,114.790 41.068 C 115.024 41.443,115.267 41.787,115.329 41.833 C 115.390 41.879,115.803 42.479,116.246 43.167 C 118.426 46.550,120.289 50.222,121.405 53.333 C 121.652 54.021,121.917 54.702,121.995 54.848 C 122.124 55.090,122.851 57.612,123.432 59.833 C 126.415 71.236,124.543 85.787,118.705 96.583 C 116.054 101.486,113.381 105.080,109.417 109.072 C 107.298 111.206,106.936 111.541,105.243 112.927 C 102.819 114.914,95.936 119.333,95.266 119.333 C 95.200 119.333,94.607 119.593,93.948 119.910 C 82.178 125.572,65.350 126.212,53.863 121.434 C 53.342 121.217,52.729 120.985,52.500 120.917 C 51.620 120.656,46.789 118.300,45.543 117.524 C 44.931 117.143,42.261 115.391,41.000 114.544 C 39.715 113.680,36.795 111.145,34.817 109.174 C 32.015 106.383,29.894 103.785,27.734 100.500 C 25.864 97.654,23.365 92.602,22.499 89.917 C 22.292 89.275,22.064 88.675,21.992 88.583 C 21.921 88.492,21.584 87.367,21.244 86.083 C 18.762 76.713,18.680 67.744,20.996 58.750 C 21.478 56.877,23.059 52.119,23.322 51.750 C 23.387 51.658,23.697 50.983,24.011 50.250 C 25.083 47.742,26.666 44.979,29.127 41.319 C 30.144 39.806,32.744 36.772,34.750 34.757 C 42.634 26.839,52.821 21.587,63.500 19.934 C 64.462 19.785,65.737 19.587,66.333 19.495 C 68.399 19.173,73.845 19.082,76.250 19.330 M51.167 36.110 C 48.496 36.524,47.418 36.758,45.807 37.269 C 33.901 41.052,26.868 51.426,27.831 63.789 C 28.392 71.003,29.953 75.002,34.654 81.267 C 35.060 81.808,43.715 90.578,53.888 100.756 L 72.384 119.263 85.900 105.703 C 99.812 91.747,99.852 91.705,99.056 92.015 C 97.986 92.432,94.948 92.859,92.409 92.951 C 86.590 93.160,82.172 92.207,76.833 89.590 C 72.384 87.409,67.990 83.564,65.113 79.333 C 64.385 78.264,63.000 76.019,63.000 75.909 C 63.000 75.878,62.707 75.230,62.349 74.468 C 61.991 73.707,61.496 72.446,61.249 71.667 C 61.002 70.887,60.699 69.940,60.575 69.561 C 60.343 68.848,59.926 66.544,59.765 65.083 C 59.160 59.585,60.057 53.616,62.175 49.040 C 62.445 48.455,62.667 47.935,62.667 47.883 C 62.667 47.744,64.344 44.816,64.701 44.333 C 66.352 42.096,67.216 40.981,67.730 40.423 C 68.513 39.573,68.498 39.545,66.828 38.716 C 62.480 36.559,55.625 35.418,51.167 36.110 M86.750 36.432 C 78.904 37.649,70.775 43.827,67.908 50.750 C 67.756 51.117,67.499 51.717,67.337 52.083 C 65.130 57.075,64.948 63.780,66.856 69.833 C 68.738 75.807,74.489 82.245,80.139 84.703 C 80.567 84.889,81.244 85.188,81.644 85.367 C 84.446 86.621,89.674 87.369,93.325 87.038 C 95.603 86.832,99.878 85.831,100.583 85.340 C 100.675 85.276,101.162 85.054,101.667 84.846 C 112.513 80.376,118.848 67.300,115.925 55.417 C 115.332 53.008,113.334 48.323,112.690 47.833 C 112.630 47.788,112.363 47.413,112.097 47.000 C 107.101 39.249,96.657 34.894,86.750 36.432 " stroke="none" fill="#c41433" fill-rule="evenodd"></path><path id="path3" d="M399.916 73.000 C 399.916 111.821,399.935 127.702,399.958 108.292 C 399.982 88.881,399.982 57.119,399.958 37.708 C 399.935 18.298,399.916 34.179,399.916 73.000 " stroke="none" fill="#949884" fill-rule="evenodd"></path><path id="path4" d="" stroke="none" fill="#945834" fill-rule="evenodd"></path></g></svg>