<?xml version="1.0" encoding="UTF-8" standalone="no"?>
<svg
   xmlns:dc="http://purl.org/dc/elements/1.1/"
   xmlns:cc="http://creativecommons.org/ns#"
   xmlns:rdf="http://www.w3.org/1999/02/22-rdf-syntax-ns#"
   xmlns:svg="http://www.w3.org/2000/svg"
   xmlns="http://www.w3.org/2000/svg"
   viewBox="0 0 173.88 73.519997"
   height="73.519997"
   width="173.88"
   xml:space="preserve"
   id="svg2"
   version="1.1"><metadata
     id="metadata8"><rdf:RDF><cc:Work
         rdf:about=""><dc:format>image/svg+xml</dc:format><dc:type
           rdf:resource="http://purl.org/dc/dcmitype/StillImage" /></cc:Work></rdf:RDF></metadata><defs
     id="defs6" /><g
     transform="matrix(1.3333333,0,0,-1.3333333,0,73.52)"
     id="g10"><g
       transform="scale(0.1)"
       id="g12"><path
         id="path14"
         style="fill:#632390;fill-opacity:1;fill-rule:nonzero;stroke:none"
         d="M 0.578125,146.711 H 1303.9581 V 551.445 H 0.578125 Z" /><path
         id="path16"
         style="fill:#fcd205;fill-opacity:1;fill-rule:nonzero;stroke:none"
         d="m 828.043,304.012 c -11.816,0 -21.934,-6.707 -21.934,-16.582 0,-8.641 4.844,-14.59 27.129,-23.192 9.59,5.469 16.387,12.352 16.387,21.297 0,11.309 -9.59,18.477 -21.582,18.477 z m -3.926,-47.949 c -11.679,-5.801 -18.691,-13.985 -18.691,-24.18 0,-13.336 10.449,-22.086 23.476,-22.086 12.852,0 23.457,8.277 23.457,20.523 0,10.508 -8.379,17.442 -28.242,25.743 m 12.344,6.085 c 17.988,-7.351 26.016,-15.363 26.016,-27.433 0,-16.309 -14.747,-28.867 -33.75,-28.867 -18.516,0 -33.243,11.449 -33.243,25.722 0,10.996 8.555,19.942 25.196,26.067 -16.114,6.601 -23.828,14.258 -23.828,24.922 0,13.808 14.238,25.418 31.367,25.418 17.129,0 30.84,-10.028 30.84,-22.586 0,-10.039 -7.52,-17.735 -22.598,-23.243 m 141.23,29.618 -35.214,-48.301 h 35.214 z m -43.3,-56.153 v 3.633 l 49.726,67.758 h 4.629 v -63.539 h 12.874 v -7.852 H 988.746 V 207.43 h -11.055 v 28.183 h -43.3 M 746.48,207.43 v 3.769 c 14.805,0 15.508,2.539 15.508,10.235 h 0.02 v 73.019 c -5.274,-4.394 -14.473,-10.195 -20.606,-12.89 l -1.308,2.207 c 9.551,6.113 23.242,17.89 27.187,23.234 h 5.762 v -83.441 c 0.195,-10.079 2.109,-12.012 16.875,-12.364 v -3.769 z m 186.25,21.797 h -2.949 c -2.129,-9.469 -4.883,-11.969 -12.656,-12.129 h -37.031 c 19.531,17.168 49.57,39.574 49.57,63.293 0,15.742 -11.992,27.586 -28.34,27.586 -16.855,0 -29.629,-12.157 -31.484,-29.93 h 2.48 c 3.575,12.637 13.418,21.055 24.473,21.055 11.699,0 20.586,-9.219 20.586,-20.911 0,-27.968 -45.547,-62.382 -49.57,-66.308 v -4.453 h 61.953 l 0.019,-0.02 v 0.02 h 0.039 l 1.309,9.668 h -0.02 z m -95.839,197.961 c -2.539,16.289 -7.539,17.421 -14.512,17.421 h -44.082 v -48.046 h 34.512 c 7.109,0 10.468,0.906 11.445,12.343 h 3.75 v -33.078 h -3.75 c -1.582,13.996 -5.332,13.137 -13.438,13.137 h -32.519 v -42.031 c 0,-9.075 4.18,-10.84 11.465,-10.84 h 29.57 c 13.574,0 18.047,2.91 22.793,19.539 h 3.594 l -3.086,-26.629 h -97.598 v 3.75 c 15.801,0.391 16.895,2.566 16.895,14.59 l 0.078,86.054 c 0,12.051 -1.113,14.219 -16.895,14.59 v 3.758 l 93.848,-0.047 1.543,-24.511 z m 86.64,4.023 h 83.769 l 2.4,-22.246 h -2.91 c -2.42,14.238 -5.41,16.074 -11.872,16.074 h -22.48 v -80.84 c 0,-8.73 2.929,-11.816 12.773,-11.816 h 3.711 v -3.399 H 941.91 v 3.399 h 3.692 c 9.843,0 12.773,3.086 12.773,11.816 v 80.84 h -22.461 c -6.465,0 -9.355,-1.758 -11.797,-16.094 h -2.91 z m -59.238,-17.344 c 0,9.141 8.184,14.668 19.922,14.668 12.265,0 23.652,-7.812 28.633,-19.57 h 2.851 l -2.344,17.48 c -6.113,2.793 -19.218,6.864 -30.742,6.864 -18.144,0 -31.308,-11.786 -31.308,-25.36 0,-28.574 56.738,-34.941 56.738,-58.445 0,-12.902 -12.617,-18.418 -24.531,-18.418 -13.907,0 -26.66,8.445 -30.449,24.547 h -3.125 l 3.613,-24.324 c 9.199,-2.559 21.719,-5.481 31.562,-5.481 20.801,0 35.938,13.418 35.938,29.426 0,30.059 -56.758,35.43 -56.758,58.613" /><path
         id="path18"
         style="fill:#ffffff;fill-opacity:1;fill-rule:nonzero;stroke:none"
         d="m 1153.28,384.688 c -4.55,0 -7.54,-0.196 -12.29,0.39 v 63.418 c 3.58,0.399 6.17,0.399 9.9,0.399 30.57,0 38.91,-13.446 38.91,-31.903 0,-23.801 -14.49,-32.304 -36.52,-32.304 z m 67.05,-32.833 -15.67,15 c -9.33,9.317 -15.27,13.426 -22.61,19.192 16.28,4.762 26.4,17.262 26.4,32.129 0,20.242 -16.46,35.32 -53.16,35.32 -12.91,0 -16.88,-0.195 -25,-0.605 -8.13,-0.391 -20.24,-1.192 -25,-1.192 v -3.769 h 4.35 c 11.51,0 14.91,-3.555 14.91,-15.871 v -82.821 c 0,-13.3 -4.18,-16.484 -15.88,-16.484 h -3.38 v -3.75 h 56.13 v 3.75 h -4.55 c -11.13,0 -15.88,2.976 -15.88,14.883 v 32.859 c 3.18,-0.215 5.76,-0.398 10.12,-0.398 5.21,0 8.36,0.183 13.06,0.371 15.12,-8.653 26.94,-21.953 33.95,-28.614 18.09,-17.226 22.3,-24.445 57.01,-22.851 v 3.75 c -15.25,0.996 -23.08,7.383 -34.8,19.101 z m -67.05,32.833 c -4.55,0 -7.54,-0.196 -12.29,0.39 v 63.418 c 3.58,0.399 6.17,0.399 9.9,0.399 30.57,0 38.91,-13.446 38.91,-31.903 0,-23.801 -14.49,-32.304 -36.52,-32.304 z m 67.05,-32.833 -15.67,15 c -9.33,9.317 -15.27,13.426 -22.61,19.192 16.28,4.762 26.4,17.262 26.4,32.129 0,20.242 -16.46,35.32 -53.16,35.32 -12.91,0 -16.88,-0.195 -25,-0.605 -8.13,-0.391 -20.24,-1.192 -25,-1.192 v -3.769 h 4.35 c 11.51,0 14.91,-3.555 14.91,-15.871 v -82.821 c 0,-13.3 -4.18,-16.484 -15.88,-16.484 h -3.38 v -3.75 h 56.13 v 3.75 h -4.55 c -11.13,0 -15.88,2.976 -15.88,14.883 v 32.859 c 3.18,-0.215 5.76,-0.398 10.12,-0.398 5.21,0 8.36,0.183 13.06,0.371 15.12,-8.653 26.94,-21.953 33.95,-28.614 18.09,-17.226 22.3,-24.445 57.01,-22.851 v 3.75 c -15.25,0.996 -23.08,7.383 -34.8,19.101 z M 551.52,454.668 c 20.703,0 35.918,-6.953 45.125,-10.898 l 1.535,-24.426 h -3.77 c -6.496,18.359 -20.195,30.383 -41.719,30.383 -32.949,0 -49.375,-25.489 -49.375,-58.641 0,-35.715 21.563,-59.836 51.563,-59.836 8.984,0 31.453,5.977 44.883,29.863 h 3.73 l -9.433,-23.152 c -11.758,-5.617 -21.231,-12.133 -44.512,-12.133 -40.059,0 -63.965,26.438 -63.965,62.942 0,38.281 24.688,65.898 65.938,65.898 z M 742.125,332.754 v -3.731 h -48.82 v 3.731 c 14.894,0.371 16.711,2.344 16.867,12.684 v 43.527 h -72.453 v -41.602 l 0.031,0.008 c 0,-12.031 1.113,-14.207 16.883,-14.598 v -3.75 h -48.809 v 3.75 c 14.797,0 15.5,2.567 15.5,10.254 h 0.02 v 94.676 l -0.039,0.012 c 0,7.695 -0.703,10.254 -15.5,10.254 v 3.75 h 48.82 v -3.75 c -15.781,-0.391 -16.895,-2.559 -16.895,-14.59 h -0.039 l -0.039,-36.816 h 72.461 l 0.039,38.515 c -0.136,10.508 -1.894,12.52 -16.875,12.883 v 3.738 h 48.809 v -3.738 c -14.785,0 -15.508,-2.551 -15.508,-10.258 l -0.051,-0.008 v -94.668 l 0.078,-0.011 c 0,-7.684 0.704,-10.262 15.52,-10.262 z m -478.137,53.242 22.617,53.574 22.403,-53.574 z m 179.121,65.703 v -3.75 c 15.774,-0.39 16.875,-2.558 16.875,-14.601 v -78.524 l -82.429,96.875 h -29.512 v -3.75 c 6.895,-0.187 10.566,-1.758 15.098,-4.922 v -97.07 c 0,-7.492 -2.871,-12.832 -9.493,-12.832 -5.273,0 -7.714,5.82 -10.585,12.051 l -45.918,106.523 h -14.004 l -42.383,-99.433 c -7.578,-16.504 -8.945,-19.172 -13.028,-19.172 -5.117,0 -6.933,4.562 -7.792,17.804 l -6.028,86.817 c 0,7.695 2.336,10.254 17.141,10.254 v 3.75 H 197.777 L 154.414,352.07 110.813,451.699 H 76.2383 v -3.738 c 14.8047,0 17.1562,-2.551 17.1562,-10.258 L 88.1367,353.848 C 87.1406,335.898 85.375,332.734 70.9531,332.734 v -3.73 h 41.0549 v 3.73 c -8.883,0.411 -16.3791,2.559 -15.7971,12.618 l 5.3281,88.789 h 0.414 l 46.348,-105.137 h 4.527 l 45.008,105.137 h 0.402 l 5.711,-88.379 c 0.801,-10.469 -8.289,-13.028 -17.547,-13.028 v -3.73 h 76.161 v 3.73 h -0.711 c -10.852,0 -15.977,1.973 -15.977,7.305 0,2.762 2.578,8.672 3.945,12.441 l 10.957,25.938 h 51.407 l 12.929,-30.879 c 0.782,-1.973 2.168,-4.941 2.168,-8.086 0,-5.527 -4.14,-6.719 -15.39,-6.719 h -2.688 v -3.73 h 80.293 v 3.73 c -16.785,0 -17.469,2.957 -17.469,17.168 v 84.629 l 91.707,-106.914 h 5.129 v 110.086 c 0,7.688 0.711,10.246 15.528,10.246 v 3.75 z m 655.621,-24.511 -1.57,24.511 -93.83,0.047 v -3.758 c 15.79,-0.371 16.88,-2.539 16.88,-14.59 l -0.06,-86.054 c 0,-12.024 -1.11,-14.199 -16.89,-14.59 v -3.75 h 97.57 l 3.11,26.629 h -3.59 c -4.77,-16.629 -9.2,-19.539 -22.8,-19.539 H 1048 c -7.32,0 -11.48,1.765 -11.48,10.84 v 42.031 h 32.54 c 8.08,0 11.85,0.859 13.42,-13.137 h 3.75 v 33.078 h -3.75 c -1,-11.437 -4.36,-12.343 -11.45,-12.343 h -34.51 v 48.046 h 44.06 c 6.99,0 11.99,-1.132 14.53,-17.421 h 3.62" /><path
         id="path20"
         style="fill:#ffffff;fill-opacity:1;fill-rule:nonzero;stroke:none"
         d="M 30.1055,93.8945 V 27.7227 H 21.8789 V 93.8945 H 0 v 6.9295 H 52.0938 V 93.8945 H 30.1055" /><path
         id="path22"
         style="fill:#ffffff;fill-opacity:1;fill-rule:nonzero;stroke:none"
         d="m 96.5,27.7227 v 34.875 c 0,8.4492 -2.2773,13.3203 -10.0742,13.3203 -9.6406,0 -16.4649,-9.5313 -16.4649,-22.3086 V 27.7227 h -8.1211 v 79.0583 h 8.1211 V 80.4688 c 0,-3.5743 -0.2148,-8.0196 -0.8632,-10.7227 l 0.2148,-0.1094 c 3.1445,7.9063 9.8555,12.9961 19.168,12.9961 12.3475,0 16.1365,-7.7969 16.1365,-17.332 V 27.7227 H 96.5" /><path
         id="path24"
         style="fill:#ffffff;fill-opacity:1;fill-rule:nonzero;stroke:none"
         d="m 161.477,56.3125 h -35.954 c -0.543,-16.1328 5.844,-22.8477 17.868,-22.8477 5.632,0 11.586,1.4063 15.593,3.4649 L 159.742,30 c -4.98,-2.0625 -11.047,-3.2539 -17.762,-3.2539 -16.242,0 -24.906,8.7773 -24.906,27.6172 0,16.1406 8.664,28.1601 23.61,28.1601 14.836,0 21.011,-10.289 21.011,-22.2031 0,-0.9765 0,-2.3828 -0.218,-4.0078 z M 140.25,76.3516 c -7.578,0 -13,-5.5235 -14.297,-13.9688 h 27.293 c 0.215,8.336 -4.766,13.9688 -12.996,13.9688" /><path
         id="path26"
         style="fill:#ffffff;fill-opacity:1;fill-rule:nonzero;stroke:none"
         d="m 223.098,26.7461 c -22.633,0 -26.969,12.6719 -26.969,25.2344 v 48.8435 h 8.34 V 52.7422 c 0,-10.5078 3.465,-19.168 19.277,-19.168 13.426,0 20.031,5.6289 20.031,21.2266 v 46.0232 h 8.125 V 55.4492 c 0,-18.7344 -9.851,-28.7031 -28.804,-28.7031" /><path
         id="path28"
         style="fill:#ffffff;fill-opacity:1;fill-rule:nonzero;stroke:none"
         d="m 302.48,27.7227 v 34.875 c 0,8.4492 -2.277,13.3203 -10.074,13.3203 -9.636,0 -16.461,-9.5313 -16.461,-22.3086 V 27.7227 h -8.125 v 53.8242 h 8.016 c 0,-3.461 -0.324,-8.6602 -0.863,-11.9102 l 0.215,-0.1094 c 3.031,7.7969 9.855,13.1055 19.277,13.1055 12.348,0 16.137,-7.7969 16.137,-17.332 V 27.7227 h -8.122" /><path
         id="path30"
         style="fill:#ffffff;fill-opacity:1;fill-rule:nonzero;stroke:none"
         d="m 330.098,91.3008 c -3.145,0 -5.633,2.375 -5.633,5.5195 0,3.0313 2.488,5.5237 5.633,5.5237 3.031,0 5.629,-2.4924 5.629,-5.5237 0,-3.1445 -2.598,-5.5195 -5.629,-5.5195 z M 325.98,27.7227 v 53.8242 h 8.122 V 27.7227 h -8.122" /><path
         id="path32"
         style="fill:#ffffff;fill-opacity:1;fill-rule:nonzero;stroke:none"
         d="m 371.68,27.7227 h -8.45 l -20.355,53.8242 h 9.203 l 12.567,-35.086 c 1.078,-3.3554 2.054,-6.3945 3.031,-9.5312 h 0.105 c 0.867,2.9219 1.844,6.1758 2.926,9.0937 l 12.887,35.5235 h 8.883 L 371.68,27.7227" /><path
         id="path34"
         style="fill:#ffffff;fill-opacity:1;fill-rule:nonzero;stroke:none"
         d="m 438.922,56.3125 h -35.957 c -0.543,-16.1328 5.848,-22.8477 17.871,-22.8477 5.629,0 11.586,1.4063 15.594,3.4649 L 437.188,30 c -4.981,-2.0625 -11.043,-3.2539 -17.758,-3.2539 -16.246,0 -24.914,8.7773 -24.914,27.6172 0,16.1406 8.668,28.1601 23.609,28.1601 14.84,0 21.012,-10.289 21.012,-22.2031 0,-0.9765 0,-2.3828 -0.215,-4.0078 z m -21.227,20.0391 c -7.582,0 -13,-5.5235 -14.297,-13.9688 h 27.29 c 0.218,8.336 -4.766,13.9688 -12.993,13.9688" /><path
         id="path36"
         style="fill:#ffffff;fill-opacity:1;fill-rule:nonzero;stroke:none"
         d="M 477.797,74.5117 C 465.883,76.4609 460.254,67.3633 460.254,49.2773 V 27.7227 h -8.121 v 53.8242 h 8.012 c 0,-3.5742 -0.434,-8.875 -1.192,-13.5352 l 0.11,-0.1054 c 2.167,7.9023 7.796,15.9179 19.062,14.6171 l -0.328,-8.0117" /><path
         id="path38"
         style="fill:#ffffff;fill-opacity:1;fill-rule:nonzero;stroke:none"
         d="m 496.426,26.7461 c -4.008,0 -8.125,0.4375 -11.371,1.0859 l 0.215,7.4766 c 3.464,-0.9766 7.796,-1.7344 12.019,-1.7344 7.801,0 13.215,3.461 13.215,9.0977 0,12.9922 -26.207,4.8711 -26.207,24.0429 0,8.9883 7.363,15.8086 21.012,15.8086 3.351,0 7.148,-0.5429 10.504,-1.1914 l -0.215,-7.039 c -3.578,1.1914 -7.477,1.8398 -11.16,1.8398 -7.907,0 -11.801,-3.2461 -11.801,-8.5547 0,-12.8867 26.312,-5.5234 26.312,-23.8242 0,-9.5312 -8.445,-17.0078 -22.523,-17.0078" /><path
         id="path40"
         style="fill:#ffffff;fill-opacity:1;fill-rule:nonzero;stroke:none"
         d="m 535.523,91.3008 c -3.144,0 -5.636,2.375 -5.636,5.5195 0,3.0313 2.492,5.5237 5.636,5.5237 3.032,0 5.629,-2.4924 5.629,-5.5237 0,-3.1445 -2.597,-5.5195 -5.629,-5.5195 z m -4.117,-63.5781 v 53.8242 h 8.121 V 27.7227 h -8.121" /><path
         id="path42"
         style="fill:#ffffff;fill-opacity:1;fill-rule:nonzero;stroke:none"
         d="m 573.102,26.8594 c -10.832,0 -13.969,4.7617 -13.969,15.9179 v 32.3829 h -11.699 v 6.3867 h 11.699 V 99.418 l 8.117,2.277 V 81.5469 h 15.813 V 75.1602 H 567.25 V 46.1367 c 0,-9.6367 1.734,-12.1328 8.125,-12.1328 2.707,0 5.523,0.3281 7.688,0.9766 v -7.043 c -2.813,-0.6484 -6.61,-1.0781 -9.961,-1.0781" /><path
         id="path44"
         style="fill:#ffffff;fill-opacity:1;fill-rule:nonzero;stroke:none"
         d="M 612.52,22.0938 C 606.238,5.52344 601.477,0 589.668,0 c -1.949,0 -4.652,0.214844 -6.82,0.542969 l 0.863,7.468751 c 2.168,-0.75391 4.336,-1.07813 6.719,-1.07813 6.496,0 9.746,3.03125 13.968,14.39841 l 2.493,6.3907 -20.578,53.8242 h 9.312 l 11.266,-30.8633 c 1.73,-4.875 2.922,-8.7695 4.117,-12.7773 h 0.105 c 0.973,3.4648 3.246,10.1796 5.414,16.3515 l 9.641,27.2891 h 8.883 L 612.52,22.0938" /><path
         id="path46"
         style="fill:#ffffff;fill-opacity:1;fill-rule:nonzero;stroke:none"
         d="m 683.672,26.7461 c -14.402,0 -23.715,8.7773 -23.715,27.6172 0,15.3828 9.523,28.1601 25.664,28.1601 13.106,0 23.828,-7.2539 23.828,-26.9687 0,-16.0234 -9.859,-28.8086 -25.777,-28.8086 z m 1.191,49.0625 c -8.445,0 -16.461,-6.3906 -16.461,-20.793 0,-13.7578 5.953,-21.3359 16.461,-21.3359 8.45,0 16.137,6.5 16.137,21.3359 0,12.9961 -5.414,20.793 -16.137,20.793" /><path
         id="path48"
         style="fill:#ffffff;fill-opacity:1;fill-rule:nonzero;stroke:none"
         d="m 753.086,99.5273 c -2.711,0.8677 -5.629,1.1917 -8.445,1.1917 -8.235,0 -11.914,-4.7659 -11.914,-15.1643 v -4.0078 h 15.921 V 75.1602 H 732.727 V 27.7227 h -8.122 v 47.4375 h -11.699 v 6.3867 h 11.699 v 3.7929 c 0,15.0552 7.469,21.9842 20.356,21.9842 3.031,0 5.957,-0.32 8.883,-0.976 l -0.758,-6.8207" /><path
         id="path50"
         style="fill:#ffffff;fill-opacity:1;fill-rule:nonzero;stroke:none"
         d="m 850.984,27.7227 -6.496,45.0546 c -1.3,8.8829 -1.843,14.293 -2.277,18.3008 h -0.215 c -0.758,-3.0312 -1.84,-7.2539 -3.574,-12.2343 L 821.313,27.7227 h -9.422 l -16.246,47.8671 c -1.84,5.3086 -3.79,11.0508 -4.661,15.4883 h -0.105 c -0.32,-5.8476 -1.082,-11.6953 -1.949,-19.1679 l -5.309,-44.1875 h -8.555 l 10.399,73.1013 h 10.508 l 16.672,-49.3826 c 1.843,-5.3047 3.363,-10.1836 4.117,-14.1836 h 0.218 c 1.083,4.9766 2.165,8.2266 4.004,13.4258 l 17.118,50.1404 h 10.828 l 10.832,-73.1013 h -8.778" /><path
         id="path52"
         style="fill:#ffffff;fill-opacity:1;fill-rule:nonzero;stroke:none"
         d="m 902.105,27.7227 c 0,4.1171 0,8.2343 0.54,11.375 h -0.219 c -2.598,-6.8243 -9.528,-12.3516 -18.735,-12.3516 -8.554,0 -14.726,4.5547 -14.726,13.1055 0,11.2656 11.695,19.0664 32.707,19.0664 v 4.4375 c 0,8.125 -2.926,12.6679 -12.238,12.6679 -5.2,0 -11.7,-1.625 -16.461,-4.6562 l -0.762,7.1484 c 5.094,2.2774 11.375,4.0078 18.629,4.0078 14.84,0 19.062,-7.3632 19.062,-17.5429 V 43.8633 c 0,-5.3086 0,-11.375 0.215,-16.1406 z m -0.433,25.2382 c -20.25,0 -24.586,-6.3945 -24.586,-11.5898 0,-4.8711 3.465,-8.0156 8.773,-8.0156 9.532,0 15.813,9.4218 15.813,18.7343 v 0.8711" /><path
         id="path54"
         style="fill:#ffffff;fill-opacity:1;fill-rule:nonzero;stroke:none"
         d="m 960.043,27.7227 v 34.875 c 0,8.4492 -2.273,13.3203 -10.07,13.3203 -9.641,0 -16.461,-9.5313 -16.461,-22.3086 V 27.7227 h -8.125 v 53.8242 h 8.015 c 0,-3.461 -0.328,-8.6602 -0.867,-11.9102 l 0.219,-0.1094 c 3.031,7.7969 9.851,13.1055 19.277,13.1055 12.344,0 16.133,-7.7969 16.133,-17.332 V 27.7227 h -8.121" /><path
         id="path56"
         style="fill:#ffffff;fill-opacity:1;fill-rule:nonzero;stroke:none"
         d="m 1003.91,27.0742 c -12.023,0 -23.289,5.3086 -23.289,25.668 0,17.6523 8.883,29.5664 26.429,29.5664 4.43,0 8.88,-0.6484 12.67,-1.8398 l -0.87,-7.1485 c -3.57,1.4063 -7.8,2.3828 -12.35,2.3828 -11.582,0 -17.324,-8.5586 -17.324,-21.5547 0,-11.0429 3.465,-20.1445 16.464,-20.1445 4.76,0 9.96,1.1914 13.53,3.0313 L 1019.93,30 c -3.57,-1.4102 -9.42,-2.9258 -16.02,-2.9258" /><path
         id="path58"
         style="fill:#ffffff;fill-opacity:1;fill-rule:nonzero;stroke:none"
         d="m 1065.85,27.7227 v 34.875 c 0,8.4492 -2.28,13.3203 -10.07,13.3203 -9.64,0 -16.46,-9.5313 -16.46,-22.3086 V 27.7227 h -8.12 v 79.0583 h 8.12 V 80.4688 c 0,-3.5743 -0.22,-8.0196 -0.87,-10.7227 l 0.22,-0.1094 c 3.14,7.9063 9.85,12.9961 19.17,12.9961 12.34,0 16.13,-7.7969 16.13,-17.332 V 27.7227 h -8.12" /><path
         id="path60"
         style="fill:#ffffff;fill-opacity:1;fill-rule:nonzero;stroke:none"
         d="m 1130.83,56.3125 h -35.96 c -0.54,-16.1328 5.85,-22.8477 17.87,-22.8477 5.63,0 11.59,1.4063 15.6,3.4649 L 1129.1,30 c -4.98,-2.0625 -11.05,-3.2539 -17.76,-3.2539 -16.25,0 -24.91,8.7773 -24.91,27.6172 0,16.1406 8.66,28.1601 23.6,28.1601 14.84,0 21.01,-10.289 21.01,-22.2031 0,-0.9765 0,-2.3828 -0.21,-4.0078 z m -21.23,20.0391 c -7.58,0 -12.99,-5.5235 -14.29,-13.9688 h 27.29 c 0.22,8.336 -4.77,13.9688 -13,13.9688" /><path
         id="path62"
         style="fill:#ffffff;fill-opacity:1;fill-rule:nonzero;stroke:none"
         d="m 1152.16,26.7461 c -4,0 -8.12,0.4375 -11.37,1.0859 l 0.22,7.4766 c 3.47,-0.9766 7.8,-1.7344 12.02,-1.7344 7.8,0 13.22,3.461 13.22,9.0977 0,12.9922 -26.22,4.8711 -26.22,24.0429 0,8.9883 7.37,15.8086 21.01,15.8086 3.36,0 7.15,-0.5429 10.51,-1.1914 l -0.22,-7.039 c -3.57,1.1914 -7.47,1.8398 -11.15,1.8398 -7.91,0 -11.81,-3.2461 -11.81,-8.5547 0,-12.8867 26.32,-5.5234 26.32,-23.8242 0,-9.5312 -8.44,-17.0078 -22.53,-17.0078" /><path
         id="path64"
         style="fill:#ffffff;fill-opacity:1;fill-rule:nonzero;stroke:none"
         d="m 1204.26,26.8594 c -10.83,0 -13.98,4.7617 -13.98,15.9179 v 32.3829 h -11.69 v 6.3867 h 11.69 V 99.418 l 8.13,2.277 V 81.5469 h 15.81 v -6.3867 h -15.81 V 46.1367 c 0,-9.6367 1.73,-12.1328 8.12,-12.1328 2.71,0 5.53,0.3281 7.69,0.9766 v -7.043 c -2.82,-0.6484 -6.61,-1.0781 -9.96,-1.0781" /><path
         id="path66"
         style="fill:#ffffff;fill-opacity:1;fill-rule:nonzero;stroke:none"
         d="m 1265.44,56.3125 h -35.95 c -0.54,-16.1328 5.85,-22.8477 17.87,-22.8477 5.63,0 11.59,1.4063 15.59,3.4649 L 1263.71,30 c -4.98,-2.0625 -11.04,-3.2539 -17.76,-3.2539 -16.24,0 -24.91,8.7773 -24.91,27.6172 0,16.1406 8.67,28.1601 23.61,28.1601 14.84,0 21.01,-10.289 21.01,-22.2031 0,-0.9765 0,-2.3828 -0.22,-4.0078 z m -21.22,20.0391 c -7.58,0 -13,-5.5235 -14.3,-13.9688 h 27.29 c 0.22,8.336 -4.76,13.9688 -12.99,13.9688" /><path
         id="path68"
         style="fill:#ffffff;fill-opacity:1;fill-rule:nonzero;stroke:none"
         d="m 1303.78,74.5117 c -11.91,1.9492 -17.54,-7.1484 -17.54,-25.2344 V 27.7227 h -8.12 v 53.8242 h 8.01 c 0,-3.5742 -0.43,-8.875 -1.19,-13.5352 l 0.1,-0.1054 c 2.17,7.9023 7.8,15.9179 19.07,14.6171 l -0.33,-8.0117" /></g></g></svg>